<?xml version="1.0" encoding="UTF-8" standalone="no"?><!DOCTYPE svg PUBLIC "-//W3C//DTD SVG 1.1//EN" "http://www.w3.org/Graphics/SVG/1.1/DTD/svg11.dtd"><!-- Generated by graphviz version 2.40.1 (20161225.0304)
 --><!-- Title: core_AFD Pages: 1 --><svg xmlns="http://www.w3.org/2000/svg" xmlns:xlink="http://www.w3.org/1999/xlink" width="260pt" height="360pt" viewBox="0.00 0.00 259.71 360.00">
<g id="graph0" class="graph" transform="scale(.5984 .5984) rotate(0) translate(4 597.6)">
<title>core_AFD</title>
<polygon fill="#ffffff" stroke="transparent" points="-4,4 -4,-597.6 430,-597.6 430,4 -4,4"/>
<g id="clust1" class="cluster">
<title>cluster_decomposition_loop</title>
<polygon fill="none" stroke="#000000" stroke-dasharray="1,5" points="8,-8 8,-333.6 418,-333.6 418,-8 8,-8"/>
<text text-anchor="start" x="16" y="-317" font-family="Times,serif" font-size="14.00" fill="#000000">Decomposition Loop</text>
</g>
<g id="clust2" class="cluster">
<title>cluster_searching_an</title>
<polygon fill="none" stroke="#000000" stroke-dasharray="1,5" points="16,-152 16,-300.8 398,-300.8 398,-152 16,-152"/>
<text text-anchor="start" x="24" y="-285.2" font-family="Times,serif" font-size="14.00" fill="#000000">Searching a</text>
<text text-anchor="start" x="89.6922" y="-285.2" font-family="Times,serif" baseline-shift="sub" font-size="14.00" fill="#000000">n</text>
</g>
<!-- a -->
<g id="node1" class="node">
<title>a</title>
<polygon fill="none" stroke="#000000" points="249.8416,-593.6 181.6902,-593.6 164.1584,-557.6 232.3098,-557.6 249.8416,-593.6"/>
<text text-anchor="middle" x="207" y="-571.4" font-family="Times,serif" font-size="14.00" fill="#000000">Start</text>
</g>
<!-- b -->
<g id="node2" class="node">
<title>b</title>
<polygon fill="none" stroke="#000000" points="298.9174,-521.6 115.0826,-521.6 115.0826,-485.6 298.9174,-485.6 298.9174,-521.6"/>
<text text-anchor="middle" x="207" y="-499.4" font-family="Times,serif" font-size="14.00" fill="#000000">Generate searching dictionary</text>
</g>
<!-- a&#45;&gt;b -->
<g id="edge1" class="edge">
<title>a-&gt;b</title>
<path fill="none" stroke="#000000" d="M207,-557.4314C207,-557.4314 207,-532.0133 207,-532.0133"/>
<polygon fill="#000000" stroke="#000000" points="210.5001,-532.0132 207,-522.0133 203.5001,-532.0133 210.5001,-532.0132"/>
</g>
<!-- c -->
<g id="node3" class="node">
<title>c</title>
<polygon fill="none" stroke="#000000" points="270.5472,-449.6 143.4528,-449.6 143.4528,-413.6 270.5472,-413.6 270.5472,-449.6"/>
<text text-anchor="middle" x="207" y="-427.4" font-family="Times,serif" font-size="14.00" fill="#000000">Generate evaluators</text>
</g>
<!-- b&#45;&gt;c -->
<g id="edge2" class="edge">
<title>b-&gt;c</title>
<path fill="none" stroke="#000000" d="M207,-485.4314C207,-485.4314 207,-460.0133 207,-460.0133"/>
<polygon fill="#000000" stroke="#000000" points="210.5001,-460.0132 207,-450.0133 203.5001,-460.0133 210.5001,-460.0132"/>
</g>
<!-- i -->
<g id="node4" class="node">
<title>i</title>
<polygon fill="none" stroke="#000000" points="282.6939,-377.6 131.3061,-377.6 131.3061,-341.6 282.6939,-341.6 282.6939,-377.6"/>
<text text-anchor="middle" x="207" y="-355.4" font-family="Times,serif" font-size="14.00" fill="#000000">Initialize decomposition</text>
</g>
<!-- c&#45;&gt;i -->
<g id="edge3" class="edge">
<title>c-&gt;i</title>
<path fill="none" stroke="#000000" d="M207,-413.4314C207,-413.4314 207,-388.0133 207,-388.0133"/>
<polygon fill="#000000" stroke="#000000" points="210.5001,-388.0132 207,-378.0133 203.5001,-388.0133 210.5001,-388.0132"/>
</g>
<!-- d -->
<g id="node5" class="node">
<title>d</title>
<polygon fill="none" stroke="#000000" points="329.4784,-268 84.5216,-268 84.5216,-232 329.4784,-232 329.4784,-268"/>
<text text-anchor="start" x="92.5108" y="-246.8" font-family="Times,serif" font-size="14.00" fill="#000000">Calculate objective function values of a</text>
<text text-anchor="start" x="314.4892" y="-246.8" font-family="Times,serif" baseline-shift="sub" font-size="14.00" fill="#000000">n</text>
</g>
<!-- i&#45;&gt;d -->
<g id="edge4" class="edge">
<title>i-&gt;d</title>
<path fill="none" stroke="#000000" d="M207,-341.5018C207,-341.5018 207,-278.1251 207,-278.1251"/>
<polygon fill="#000000" stroke="#000000" points="210.5001,-278.1251 207,-268.1251 203.5001,-278.1251 210.5001,-278.1251"/>
</g>
<!-- e -->
<g id="node6" class="node">
<title>e</title>
<polygon fill="none" stroke="#000000" points="389.6306,-196 24.3694,-196 24.3694,-160 389.6306,-160 389.6306,-196"/>
<text text-anchor="start" x="32.4347" y="-174.8" font-family="Times,serif" font-size="14.00" fill="#000000">Obtain a</text>
<text text-anchor="start" x="80.2517" y="-174.8" font-family="Times,serif" baseline-shift="sub" font-size="14.00" fill="#000000">n</text>
<text text-anchor="start" x="87.2517" y="-174.8" font-family="Times,serif" font-size="14.00" fill="#000000"> by searching the maximum objective function value</text>
</g>
<!-- d&#45;&gt;e -->
<g id="edge5" class="edge">
<title>d-&gt;e</title>
<path fill="none" stroke="#000000" d="M207,-231.8314C207,-231.8314 207,-206.4133 207,-206.4133"/>
<polygon fill="#000000" stroke="#000000" points="210.5001,-206.4132 207,-196.4133 203.5001,-206.4133 210.5001,-206.4132"/>
</g>
<!-- f -->
<g id="node7" class="node">
<title>f</title>
<polygon fill="none" stroke="#000000" points="328.1896,-124 85.8104,-124 85.8104,-88 328.1896,-88 328.1896,-124"/>
<text text-anchor="middle" x="207" y="-101.8" font-family="Times,serif" font-size="14.00" fill="#000000">Construct the decomposition component</text>
</g>
<!-- e&#45;&gt;f -->
<g id="edge6" class="edge">
<title>e-&gt;f</title>
<path fill="none" stroke="#000000" d="M207,-159.8314C207,-159.8314 207,-134.4133 207,-134.4133"/>
<polygon fill="#000000" stroke="#000000" points="210.5001,-134.4132 207,-124.4133 203.5001,-134.4133 210.5001,-134.4132"/>
</g>
<!-- g -->
<g id="node8" class="node">
<title>g</title>
<polygon fill="none" stroke="#000000" points="294.8834,-52 119.1166,-52 119.1166,-16 294.8834,-16 294.8834,-52"/>
<text text-anchor="middle" x="207" y="-29.8" font-family="Times,serif" font-size="14.00" fill="#000000">Compute reduced remainder</text>
</g>
<!-- f&#45;&gt;g -->
<g id="edge7" class="edge">
<title>f-&gt;g</title>
<path fill="none" stroke="#000000" d="M207,-87.8314C207,-87.8314 207,-62.4133 207,-62.4133"/>
<polygon fill="#000000" stroke="#000000" points="210.5001,-62.4132 207,-52.4133 203.5001,-62.4133 210.5001,-62.4132"/>
</g>
<!-- g&#45;&gt;d -->
<g id="edge8" class="edge">
<title>g-&gt;d</title>
<path fill="none" stroke="#000000" d="M119.0291,-34C65.1397,-34 6.4347,-34 6.4347,-34 6.4347,-34 6.4347,-250 6.4347,-250 6.4347,-250 74.2655,-250 74.2655,-250"/>
<polygon fill="#000000" stroke="#000000" points="74.2656,-253.5001 84.2655,-250 74.2655,-246.5001 74.2656,-253.5001"/>
</g>
</g>
</svg>