<?xml version="1.0" encoding="UTF-8" standalone="no"?><!DOCTYPE svg PUBLIC "-//W3C//DTD SVG 1.1//EN" "http://www.w3.org/Graphics/SVG/1.1/DTD/svg11.dtd"><!-- Generated by graphviz version 2.40.1 (20161225.0304)
 --><!-- Title: unwinding_AFD Pages: 1 --><svg xmlns="http://www.w3.org/2000/svg" xmlns:xlink="http://www.w3.org/1999/xlink" width="269pt" height="576pt" viewBox="0.00 0.00 269.31 576.00">
<g id="graph0" class="graph" transform="scale(.4248 .4248) rotate(0) translate(4 1352)">
<title>unwinding_AFD</title>
<polygon fill="#ffffff" stroke="transparent" points="-4,4 -4,-1352 630,-1352 630,4 -4,4"/>
<g id="clust1" class="cluster">
<title>cluster_decomposition_loop</title>
<polygon fill="none" stroke="#000000" stroke-dasharray="1,5" points="8,-8 8,-1066 618,-1066 618,-8 8,-8"/>
<text text-anchor="start" x="16" y="-1049.4" font-family="Times,serif" font-size="14.00" fill="#000000">Decomposition Loop</text>
</g>
<g id="clust2" class="cluster">
<title>cluster_searching_an</title>
<polygon fill="none" stroke="#000000" stroke-dasharray="1,5" points="97,-230 97,-493.8 479,-493.8 479,-230 97,-230"/>
<text text-anchor="start" x="105" y="-478.2" font-family="Times,serif" font-size="14.00" fill="#000000">Searching a</text>
<text text-anchor="start" x="170.6922" y="-478.2" font-family="Times,serif" baseline-shift="sub" font-size="14.00" fill="#000000">n</text>
</g>
<g id="clust3" class="cluster">
<title>cluster_searching_r</title>
<polygon fill="none" stroke="#000000" stroke-dasharray="1,5" points="16,-566.6 16,-1033.2 598,-1033.2 598,-566.6 16,-566.6"/>
<text text-anchor="start" x="24" y="-1016.6" font-family="Times,serif" font-size="14.00" fill="#000000">Searching zeros</text>
</g>
<!-- a -->
<g id="node1" class="node">
<title>a</title>
<polygon fill="none" stroke="#000000" points="252.8416,-1348 184.6902,-1348 167.1584,-1312 235.3098,-1312 252.8416,-1348"/>
<text text-anchor="middle" x="210" y="-1325.8" font-family="Times,serif" font-size="14.00" fill="#000000">Start</text>
</g>
<!-- b -->
<g id="node2" class="node">
<title>b</title>
<polygon fill="none" stroke="#000000" points="301.9174,-1275 118.0826,-1275 118.0826,-1239 301.9174,-1239 301.9174,-1275"/>
<text text-anchor="middle" x="210" y="-1252.8" font-family="Times,serif" font-size="14.00" fill="#000000">Generate searching dictionary</text>
</g>
<!-- a&#45;&gt;b -->
<g id="edge1" class="edge">
<title>a-&gt;b</title>
<path fill="none" stroke="#000000" d="M210,-1311.9551C210,-1311.9551 210,-1285.0904 210,-1285.0904"/>
<polygon fill="#000000" stroke="#000000" points="213.5001,-1285.0903 210,-1275.0904 206.5001,-1285.0904 213.5001,-1285.0903"/>
</g>
<!-- c -->
<g id="node3" class="node">
<title>c</title>
<polygon fill="none" stroke="#000000" points="273.5472,-1202 146.4528,-1202 146.4528,-1166 273.5472,-1166 273.5472,-1202"/>
<text text-anchor="middle" x="210" y="-1179.8" font-family="Times,serif" font-size="14.00" fill="#000000">Generate evaluators</text>
</g>
<!-- b&#45;&gt;c -->
<g id="edge2" class="edge">
<title>b-&gt;c</title>
<path fill="none" stroke="#000000" d="M210,-1238.9551C210,-1238.9551 210,-1212.0904 210,-1212.0904"/>
<polygon fill="#000000" stroke="#000000" points="213.5001,-1212.0903 210,-1202.0904 206.5001,-1212.0904 213.5001,-1212.0903"/>
</g>
<!-- i -->
<g id="node4" class="node">
<title>i</title>
<polygon fill="none" stroke="#000000" points="285.6939,-1129 134.3061,-1129 134.3061,-1093 285.6939,-1093 285.6939,-1129"/>
<text text-anchor="middle" x="210" y="-1106.8" font-family="Times,serif" font-size="14.00" fill="#000000">Initialize decomposition</text>
</g>
<!-- c&#45;&gt;i -->
<g id="edge3" class="edge">
<title>c-&gt;i</title>
<path fill="none" stroke="#000000" d="M210,-1165.9551C210,-1165.9551 210,-1139.0904 210,-1139.0904"/>
<polygon fill="#000000" stroke="#000000" points="213.5001,-1139.0903 210,-1129.0904 206.5001,-1139.0904 213.5001,-1139.0903"/>
</g>
<!-- d_r -->
<g id="node5" class="node">
<title>d_r</title>
<polygon fill="none" stroke="#000000" points="336.9244,-1000.4 83.0756,-1000.4 83.0756,-964.4 336.9244,-964.4 336.9244,-1000.4"/>
<text text-anchor="start" x="91.0378" y="-979.2" font-family="Times,serif" font-size="14.00" fill="#000000">Calculate objective function values of r</text>
<text text-anchor="start" x="311.4622" y="-979.2" font-family="Times,serif" baseline-shift="sub" font-size="14.00" fill="#000000">n,h</text>
</g>
<!-- i&#45;&gt;d_r -->
<g id="edge4" class="edge">
<title>i-&gt;d_r</title>
<path fill="none" stroke="#000000" d="M210,-1092.8475C210,-1092.8475 210,-1010.4601 210,-1010.4601"/>
<polygon fill="#000000" stroke="#000000" points="213.5001,-1010.4601 210,-1000.4601 206.5001,-1010.4602 213.5001,-1010.4601"/>
</g>
<!-- e_r -->
<g id="node8" class="node">
<title>e_r</title>
<polygon fill="none" stroke="#000000" points="395.7527,-813.4 24.2473,-813.4 24.2473,-777.4 395.7527,-777.4 395.7527,-813.4"/>
<text text-anchor="start" x="32.1237" y="-792.2" font-family="Times,serif" font-size="14.00" fill="#000000">Obtain r</text>
<text text-anchor="start" x="78.3867" y="-792.2" font-family="Times,serif" baseline-shift="sub" font-size="14.00" fill="#000000">n,h</text>
<text text-anchor="start" x="95.8867" y="-792.2" font-family="Times,serif" font-size="14.00" fill="#000000"> by searching the minimum objective function value</text>
</g>
<!-- d_r&#45;&gt;e_r -->
<g id="edge6" class="edge">
<title>d_r-&gt;e_r</title>
<path fill="none" stroke="#000000" d="M210,-964.1292C210,-964.1292 210,-823.4697 210,-823.4697"/>
<polygon fill="#000000" stroke="#000000" points="213.5001,-823.4696 210,-813.4697 206.5001,-823.4697 213.5001,-823.4696"/>
</g>
<!-- d -->
<g id="node6" class="node">
<title>d</title>
<polygon fill="none" stroke="#000000" points="410.4784,-461 165.5216,-461 165.5216,-425 410.4784,-425 410.4784,-461"/>
<text text-anchor="start" x="173.5108" y="-439.8" font-family="Times,serif" font-size="14.00" fill="#000000">Calculate objective function values of a</text>
<text text-anchor="start" x="395.4892" y="-439.8" font-family="Times,serif" baseline-shift="sub" font-size="14.00" fill="#000000">n</text>
</g>
<!-- e -->
<g id="node7" class="node">
<title>e</title>
<polygon fill="none" stroke="#000000" points="470.6306,-274 105.3694,-274 105.3694,-238 470.6306,-238 470.6306,-274"/>
<text text-anchor="start" x="113.4347" y="-252.8" font-family="Times,serif" font-size="14.00" fill="#000000">Obtain a</text>
<text text-anchor="start" x="161.2517" y="-252.8" font-family="Times,serif" baseline-shift="sub" font-size="14.00" fill="#000000">n</text>
<text text-anchor="start" x="168.2517" y="-252.8" font-family="Times,serif" font-size="14.00" fill="#000000"> by searching the maximum objective function value</text>
</g>
<!-- d&#45;&gt;e -->
<g id="edge5" class="edge">
<title>d-&gt;e</title>
<path fill="none" stroke="#000000" d="M288,-424.7292C288,-424.7292 288,-284.0697 288,-284.0697"/>
<polygon fill="#000000" stroke="#000000" points="291.5001,-284.0696 288,-274.0697 284.5001,-284.0697 291.5001,-284.0696"/>
</g>
<!-- f -->
<g id="node11" class="node">
<title>f</title>
<polygon fill="none" stroke="#000000" points="409.1896,-163 166.8104,-163 166.8104,-127 409.1896,-127 409.1896,-163"/>
<text text-anchor="middle" x="288" y="-140.8" font-family="Times,serif" font-size="14.00" fill="#000000">Construct the decomposition component</text>
</g>
<!-- e&#45;&gt;f -->
<g id="edge11" class="edge">
<title>e-&gt;f</title>
<path fill="none" stroke="#000000" d="M288,-237.6706C288,-237.6706 288,-173.3566 288,-173.3566"/>
<polygon fill="#000000" stroke="#000000" points="291.5001,-173.3566 288,-163.3566 284.5001,-173.3567 291.5001,-173.3566"/>
</g>
<!-- f_r -->
<g id="node9" class="node">
<title>f_r</title>
<polygon fill="none" stroke="#000000" points="288,-610.6 24.2187,-592.6 288,-574.6 551.7813,-592.6 288,-610.6"/>
<text text-anchor="start" x="160.8688" y="-588.4" font-family="Times,serif" font-size="14.00" fill="#000000">Is the objective function value small enough?</text>
</g>
<!-- e_r&#45;&gt;f_r -->
<g id="edge7" class="edge">
<title>e_r-&gt;f_r</title>
<path fill="none" stroke="#000000" d="M210.1178,-777.0452C210.1178,-777.0452 210.1178,-615.3436 210.1178,-615.3436"/>
<polygon fill="#000000" stroke="#000000" points="213.6179,-615.3436 210.1178,-605.3436 206.6179,-615.3437 213.6179,-615.3436"/>
</g>
<!-- f_r&#45;&gt;d -->
<g id="edge8" class="edge">
<title>f_r-&gt;d</title>
<path fill="none" stroke="#000000" d="M288,-574.5547C288,-574.5547 288,-471.1093 288,-471.1093"/>
<polygon fill="#000000" stroke="#000000" points="291.5001,-471.1092 288,-461.1093 284.5001,-471.1093 291.5001,-471.1092"/>
<text text-anchor="middle" x="296.5533" y="-525" font-family="Times,serif" font-size="14.00" fill="#000000">No</text>
</g>
<!-- g_r -->
<g id="node10" class="node">
<title>g_r</title>
<polygon fill="none" stroke="#000000" points="589.7933,-813.4 414.2067,-813.4 414.2067,-777.4 589.7933,-777.4 589.7933,-813.4"/>
<text text-anchor="start" x="422.1034" y="-792.2" font-family="Times,serif" font-size="14.00" fill="#000000">Add obtained r</text>
<text text-anchor="start" x="506.081" y="-792.2" font-family="Times,serif" baseline-shift="sub" font-size="14.00" fill="#000000">n,h</text>
<text text-anchor="start" x="523.581" y="-792.2" font-family="Times,serif" font-size="14.00" fill="#000000"> into zeros</text>
</g>
<!-- f_r&#45;&gt;g_r -->
<g id="edge9" class="edge">
<title>f_r-&gt;g_r</title>
<path fill="none" stroke="#000000" d="M482.872,-597.6131C482.872,-597.6131 482.872,-767.3137 482.872,-767.3137"/>
<polygon fill="#000000" stroke="#000000" points="479.3721,-767.3137 482.872,-777.3137 486.3721,-767.3137 479.3721,-767.3137"/>
<text text-anchor="middle" x="405.8829" y="-689.8" font-family="Times,serif" font-size="14.00" fill="#000000">Yes</text>
</g>
<!-- g_r&#45;&gt;d_r -->
<g id="edge10" class="edge">
<title>g_r-&gt;d_r</title>
<path fill="none" stroke="#000000" d="M502,-813.6317C502,-860.5851 502,-982 502,-982 502,-982 347.226,-982 347.226,-982"/>
<polygon fill="#000000" stroke="#000000" points="347.2261,-978.5001 337.226,-982 347.226,-985.5001 347.2261,-978.5001"/>
</g>
<!-- g -->
<g id="node12" class="node">
<title>g</title>
<polygon fill="none" stroke="#000000" points="375.8834,-52 200.1166,-52 200.1166,-16 375.8834,-16 375.8834,-52"/>
<text text-anchor="middle" x="288" y="-29.8" font-family="Times,serif" font-size="14.00" fill="#000000">Compute reduced remainder</text>
</g>
<!-- f&#45;&gt;g -->
<g id="edge12" class="edge">
<title>f-&gt;g</title>
<path fill="none" stroke="#000000" d="M288,-126.6706C288,-126.6706 288,-62.3566 288,-62.3566"/>
<polygon fill="#000000" stroke="#000000" points="291.5001,-62.3566 288,-52.3566 284.5001,-62.3567 291.5001,-62.3566"/>
</g>
<!-- g&#45;&gt;d_r -->
<g id="edge13" class="edge">
<title>g-&gt;d_r</title>
<path fill="none" stroke="#000000" d="M199.972,-34C117.2663,-34 6.1237,-34 6.1237,-34 6.1237,-34 6.1237,-982 6.1237,-982 6.1237,-982 72.9101,-982 72.9101,-982"/>
<polygon fill="#000000" stroke="#000000" points="72.9101,-985.5001 82.9101,-982 72.91,-978.5001 72.9101,-985.5001"/>
</g>
</g>
</svg>